<?xml version="1.0" encoding="UTF-8" standalone="no"?>
<svg width="46px" height="46px" viewBox="0 0 46 46" version="1.1" xmlns="http://www.w3.org/2000/svg" xmlns:xlink="http://www.w3.org/1999/xlink" xmlns:sketch="http://www.bohemiancoding.com/sketch/ns">
    <!-- Generator: Sketch 3.3.3 (12081) - http://www.bohemiancoding.com/sketch -->
    <title>Shape</title>
    <desc>Created with Sketch.</desc>
    <defs></defs>
    <g id="Page-1" stroke="none" stroke-width="1" fill="none" fill-rule="evenodd" sketch:type="MSPage">
        <g id="noun_97475_cc" sketch:type="MSLayerGroup" transform="translate(-14.000000, 0.000000)" fill="#FFFFFF">
            <path d="M36.9971253,0.505 C24.573124,0.505 14.506,10.5895894 14.506,23.0138745 C14.506,35.4387935 24.573124,45.505 36.9971253,45.505 C49.4217604,45.505 59.506,35.4381596 59.506,23.0138745 C59.506,10.5895894 49.4217604,0.505 36.9971253,0.505 L36.9971253,0.505 L36.9971253,0.505 Z M36.9971253,1.47992605 C48.889276,1.47992605 58.5316804,11.1214248 58.5316804,23.0138745 C58.5316804,34.8885752 48.889276,44.5129589 36.9971253,44.5129589 C25.122724,44.5129589 15.498703,34.8885752 15.498703,23.0138745 C15.498703,11.1214248 25.122724,1.47992605 36.9971253,1.47992605 L36.9971253,1.47992605 L36.9971253,1.47992605 Z M36.9438768,8.99408297 C36.7137675,9.03021482 36.5007738,9.26031765 36.5185232,9.50880335 L36.5185232,22.499788 L23.5094231,22.499788 C23.2438148,22.499788 22.9953221,22.7298908 22.9953221,22.9961255 C22.9953221,23.2617263 23.2438148,23.4918291 23.5094231,23.4918291 L36.5185232,23.4918291 L36.5185232,36.5011966 C36.5185232,36.7667974 36.7486326,37.0152831 37.0148747,37.0152831 C37.2811169,37.0152831 37.5112262,36.7667974 37.5112262,36.5011966 L37.5112262,23.492463 L50.5025769,23.492463 C50.7688191,23.492463 51.0166779,23.2623602 51.0166779,22.9967594 C51.0166779,22.7305247 50.7688191,22.5004219 50.5025769,22.5004219 L37.5112262,22.5004219 L37.5112262,9.50880335 C37.5289757,9.22545359 37.2449841,8.9592189 36.9438768,8.99408297 L36.9438768,8.99408297 L36.9438768,8.99408297 Z" id="Shape" sketch:type="MSShapeGroup"></path>
        </g>
    </g>
</svg>